<?xml version="1.0" encoding="UTF-8" standalone="no"?>
<!DOCTYPE svg PUBLIC "-//W3C//DTD SVG 1.1//EN"
 "http://www.w3.org/Graphics/SVG/1.1/DTD/svg11.dtd">
<!-- Generated by graphviz version 3.0.0 (0)
 -->
<!-- Pages: 1 -->
<svg width="630pt" height="359pt"
 viewBox="0.00 0.00 630.30 358.80" xmlns="http://www.w3.org/2000/svg" xmlns:xlink="http://www.w3.org/1999/xlink">
<g id="graph0" class="graph" transform="scale(1 1) rotate(0) translate(14.4 344.4)">
<polygon fill="white" stroke="transparent" points="-14.4,14.4 -14.4,-344.4 615.9,-344.4 615.9,14.4 -14.4,14.4"/>
<!-- User -->
<g id="node1" class="node">
<title>User</title>
<polygon fill="lightblue" stroke="transparent" points="0,-309 0,-330 266,-330 266,-309 0,-309"/>
<polygon fill="none" stroke="black" points="0,-309 0,-330 266,-330 266,-309 0,-309"/>
<text text-anchor="start" x="115.5" y="-315.8" font-family="Times,serif" font-size="14.00">User</text>
<polygon fill="none" stroke="black" points="0,-288 0,-309 31,-309 31,-288 0,-288"/>
<text text-anchor="start" x="7" y="-294.8" font-family="Times,serif" font-size="14.00">PK</text>
<polygon fill="none" stroke="black" points="31,-288 31,-309 181,-309 181,-288 31,-288"/>
<text text-anchor="start" x="34" y="-294.8" font-family="Times,serif" font-size="14.00">id</text>
<polygon fill="none" stroke="black" points="181,-288 181,-309 266,-309 266,-288 181,-288"/>
<text text-anchor="start" x="184" y="-294.8" font-family="Times,serif" font-size="14.00">serial</text>
<polygon fill="none" stroke="black" points="0,-267 0,-288 31,-288 31,-267 0,-267"/>
<text text-anchor="start" x="3" y="-273.8" font-family="Times,serif" font-size="14.00">UN</text>
<polygon fill="none" stroke="black" points="31,-267 31,-288 181,-288 181,-267 31,-267"/>
<text text-anchor="start" x="34" y="-273.8" font-family="Times,serif" font-size="14.00">email</text>
<polygon fill="none" stroke="black" points="181,-267 181,-288 266,-288 266,-267 181,-267"/>
<text text-anchor="start" x="184" y="-273.8" font-family="Times,serif" font-size="14.00">text</text>
<polygon fill="none" stroke="black" points="0,-246 0,-267 31,-267 31,-246 0,-246"/>
<polygon fill="none" stroke="black" points="31,-246 31,-267 181,-267 181,-246 31,-246"/>
<text text-anchor="start" x="34" y="-252.8" font-family="Times,serif" font-size="14.00">username</text>
<polygon fill="none" stroke="black" points="181,-246 181,-267 266,-267 266,-246 181,-246"/>
<text text-anchor="start" x="184" y="-252.8" font-family="Times,serif" font-size="14.00">nchar(150)</text>
<polygon fill="none" stroke="black" points="0,-225 0,-246 31,-246 31,-225 0,-225"/>
<polygon fill="none" stroke="black" points="31,-225 31,-246 181,-246 181,-225 31,-225"/>
<text text-anchor="start" x="34" y="-231.8" font-family="Times,serif" font-size="14.00">first_name</text>
<polygon fill="none" stroke="black" points="181,-225 181,-246 266,-246 266,-225 181,-225"/>
<text text-anchor="start" x="184" y="-231.8" font-family="Times,serif" font-size="14.00">nchar(150)</text>
<polygon fill="none" stroke="black" points="0,-204 0,-225 31,-225 31,-204 0,-204"/>
<polygon fill="none" stroke="black" points="31,-204 31,-225 181,-225 181,-204 31,-204"/>
<text text-anchor="start" x="34" y="-210.8" font-family="Times,serif" font-size="14.00">last_name</text>
<polygon fill="none" stroke="black" points="181,-204 181,-225 266,-225 266,-204 181,-204"/>
<text text-anchor="start" x="184" y="-210.8" font-family="Times,serif" font-size="14.00">nchar(150)</text>
<polygon fill="none" stroke="black" points="0,-183 0,-204 31,-204 31,-183 0,-183"/>
<polygon fill="none" stroke="black" points="31,-183 31,-204 181,-204 181,-183 31,-183"/>
<text text-anchor="start" x="34" y="-189.8" font-family="Times,serif" font-size="14.00">lat</text>
<polygon fill="none" stroke="black" points="181,-183 181,-204 266,-204 266,-183 181,-183"/>
<text text-anchor="start" x="184" y="-189.8" font-family="Times,serif" font-size="14.00">type</text>
<polygon fill="none" stroke="black" points="0,-162 0,-183 31,-183 31,-162 0,-162"/>
<text text-anchor="start" x="7" y="-168.8" font-family="Times,serif" font-size="14.00">FK</text>
<polygon fill="none" stroke="black" points="31,-162 31,-183 181,-183 181,-162 31,-162"/>
<text text-anchor="start" x="34" y="-168.8" font-family="Times,serif" font-size="14.00">location_id</text>
<polygon fill="none" stroke="black" points="181,-162 181,-183 266,-183 266,-162 181,-162"/>
<text text-anchor="start" x="184" y="-168.8" font-family="Times,serif" font-size="14.00">serial</text>
</g>
<!-- Favorite -->
<g id="node2" class="node">
<title>Favorite</title>
<polygon fill="lightblue" stroke="transparent" points="375,-277 375,-298 602,-298 602,-277 375,-277"/>
<polygon fill="none" stroke="black" points="375,-277 375,-298 602,-298 602,-277 375,-277"/>
<text text-anchor="start" x="459" y="-283.8" font-family="Times,serif" font-size="14.00">Favorite</text>
<polygon fill="none" stroke="black" points="375,-256 375,-277 402,-277 402,-256 375,-256"/>
<text text-anchor="start" x="378" y="-262.8" font-family="Times,serif" font-size="14.00">PK</text>
<polygon fill="none" stroke="black" points="402,-256 402,-277 552,-277 552,-256 402,-256"/>
<text text-anchor="start" x="405" y="-262.8" font-family="Times,serif" font-size="14.00">id</text>
<polygon fill="none" stroke="black" points="552,-256 552,-277 602,-277 602,-256 552,-256"/>
<text text-anchor="start" x="555" y="-262.8" font-family="Times,serif" font-size="14.00">serial</text>
<polygon fill="none" stroke="black" points="375,-235 375,-256 402,-256 402,-235 375,-235"/>
<polygon fill="none" stroke="black" points="402,-235 402,-256 552,-256 552,-235 402,-235"/>
<text text-anchor="start" x="405" y="-241.8" font-family="Times,serif" font-size="14.00">row</text>
<polygon fill="none" stroke="black" points="552,-235 552,-256 602,-256 602,-235 552,-235"/>
<text text-anchor="start" x="555" y="-241.8" font-family="Times,serif" font-size="14.00">type</text>
<polygon fill="none" stroke="black" points="375,-214 375,-235 402,-235 402,-214 375,-214"/>
<text text-anchor="start" x="378" y="-220.8" font-family="Times,serif" font-size="14.00">FK</text>
<polygon fill="none" stroke="black" points="402,-214 402,-235 552,-235 552,-214 402,-214"/>
<text text-anchor="start" x="405" y="-220.8" font-family="Times,serif" font-size="14.00">user_id</text>
<polygon fill="none" stroke="black" points="552,-214 552,-235 602,-235 602,-214 552,-214"/>
<text text-anchor="start" x="555" y="-220.8" font-family="Times,serif" font-size="14.00">serial</text>
<polygon fill="none" stroke="black" points="375,-193 375,-214 402,-214 402,-193 375,-193"/>
<text text-anchor="start" x="378" y="-199.8" font-family="Times,serif" font-size="14.00">FK</text>
<polygon fill="none" stroke="black" points="402,-193 402,-214 552,-214 552,-193 402,-193"/>
<text text-anchor="start" x="405" y="-199.8" font-family="Times,serif" font-size="14.00">location_id</text>
<polygon fill="none" stroke="black" points="552,-193 552,-214 602,-214 602,-193 552,-193"/>
<text text-anchor="start" x="555" y="-199.8" font-family="Times,serif" font-size="14.00">serial</text>
</g>
<!-- User&#45;&gt;Favorite -->
<g id="edge1" class="edge">
<title>User&#45;&gt;Favorite</title>
<path fill="none" stroke="black" d="M276.2,-246C276.2,-246 369.41,-246 369.41,-246"/>
<polygon fill="black" stroke="black" points="364.41,-246 374.41,-250.5 369.41,-246 374.41,-246 374.41,-246 374.41,-246 369.41,-246 374.41,-241.5 364.41,-246 364.41,-246"/>
<polygon fill="black" stroke="black" points="267.2,-251 267.2,-241 269.2,-241 269.2,-251 267.2,-251"/>
<polyline fill="none" stroke="black" points="266.2,-246 271.2,-246 "/>
</g>
<!-- Location -->
<g id="node3" class="node">
<title>Location</title>
<polygon fill="lightblue" stroke="transparent" points="163,-105 163,-126 458,-126 458,-105 163,-105"/>
<polygon fill="none" stroke="black" points="163,-105 163,-126 458,-126 458,-105 163,-105"/>
<text text-anchor="start" x="280" y="-111.8" font-family="Times,serif" font-size="14.00">Location</text>
<polygon fill="none" stroke="black" points="163,-84 163,-105 190,-105 190,-84 163,-84"/>
<text text-anchor="start" x="166" y="-90.8" font-family="Times,serif" font-size="14.00">PK</text>
<polygon fill="none" stroke="black" points="190,-84 190,-105 340,-105 340,-84 190,-84"/>
<text text-anchor="start" x="193" y="-90.8" font-family="Times,serif" font-size="14.00">id</text>
<polygon fill="none" stroke="black" points="340,-84 340,-105 458,-105 458,-84 340,-84"/>
<text text-anchor="start" x="343" y="-90.8" font-family="Times,serif" font-size="14.00">serial</text>
<polygon fill="none" stroke="black" points="163,-63 163,-84 190,-84 190,-63 163,-63"/>
<polygon fill="none" stroke="black" points="190,-63 190,-84 340,-84 340,-63 190,-63"/>
<text text-anchor="start" x="193" y="-69.8" font-family="Times,serif" font-size="14.00">city</text>
<polygon fill="none" stroke="black" points="340,-63 340,-84 458,-84 458,-63 340,-63"/>
<text text-anchor="start" x="343" y="-69.8" font-family="Times,serif" font-size="14.00">text</text>
<polygon fill="none" stroke="black" points="163,-42 163,-63 190,-63 190,-42 163,-42"/>
<polygon fill="none" stroke="black" points="190,-42 190,-63 340,-63 340,-42 190,-42"/>
<text text-anchor="start" x="193" y="-48.8" font-family="Times,serif" font-size="14.00">country_code</text>
<polygon fill="none" stroke="black" points="340,-42 340,-63 458,-63 458,-42 340,-42"/>
<text text-anchor="start" x="343" y="-48.8" font-family="Times,serif" font-size="14.00">ncahr(3)</text>
<polygon fill="none" stroke="black" points="163,-21 163,-42 190,-42 190,-21 163,-21"/>
<polygon fill="none" stroke="black" points="190,-21 190,-42 340,-42 340,-21 190,-21"/>
<text text-anchor="start" x="193" y="-27.8" font-family="Times,serif" font-size="14.00">longitude</text>
<polygon fill="none" stroke="black" points="340,-21 340,-42 458,-42 458,-21 340,-21"/>
<text text-anchor="start" x="343" y="-27.8" font-family="Times,serif" font-size="14.00">decimal(18, 15)</text>
<polygon fill="none" stroke="black" points="163,0 163,-21 190,-21 190,0 163,0"/>
<polygon fill="none" stroke="black" points="190,0 190,-21 340,-21 340,0 190,0"/>
<text text-anchor="start" x="193" y="-6.8" font-family="Times,serif" font-size="14.00">latitude</text>
<polygon fill="none" stroke="black" points="340,0 340,-21 458,-21 458,0 340,0"/>
<text text-anchor="start" x="343" y="-6.8" font-family="Times,serif" font-size="14.00">decimal(17, 15)</text>
</g>
<!-- User&#45;&gt;Location -->
<g id="edge2" class="edge">
<title>User&#45;&gt;Location</title>
<path fill="none" stroke="black" d="M214.25,-157C214.25,-157 214.25,-131.23 214.25,-131.23"/>
<polygon fill="black" stroke="black" points="209.25,-127.23 219.25,-127.23 219.25,-129.23 209.25,-129.23 209.25,-127.23"/>
<polyline fill="none" stroke="black" points="214.25,-126.23 214.25,-131.23 "/>
<polygon fill="black" stroke="black" points="219.25,-161 209.25,-161 209.25,-159 219.25,-159 219.25,-161"/>
<polyline fill="none" stroke="black" points="214.25,-162 214.25,-157 "/>
</g>
<!-- Location&#45;&gt;Favorite -->
<g id="edge3" class="edge">
<title>Location&#45;&gt;Favorite</title>
<path fill="none" stroke="black" d="M416,-131.23C416,-131.23 416,-188.39 416,-188.39"/>
<polygon fill="black" stroke="black" points="421,-192.39 411,-192.39 411,-190.39 421,-190.39 421,-192.39"/>
<polyline fill="none" stroke="black" points="416,-193.39 416,-188.39 "/>
<polygon fill="black" stroke="black" points="411,-127.23 421,-127.23 421,-129.23 411,-129.23 411,-127.23"/>
<polyline fill="none" stroke="black" points="416,-126.23 416,-131.23 "/>
</g>
</g>
</svg>
