<?xml version="1.0" encoding="UTF-8" standalone="no"?>
<!DOCTYPE svg PUBLIC "-//W3C//DTD SVG 1.1//EN"
 "http://www.w3.org/Graphics/SVG/1.1/DTD/svg11.dtd">
<!-- Generated by graphviz version 3.0.0 (0)
 -->
<!-- Pages: 1 -->
<svg width="630pt" height="359pt"
 viewBox="0.00 0.00 630.30 358.80" xmlns="http://www.w3.org/2000/svg" xmlns:xlink="http://www.w3.org/1999/xlink">
<g id="graph0" class="graph" transform="scale(1 1) rotate(0) translate(14.4 344.4)">
<polygon fill="white" stroke="transparent" points="-14.4,14.4 -14.4,-344.4 615.9,-344.4 615.9,14.4 -14.4,14.4"/>
<!-- User -->
<g id="node1" class="node">
<title>User</title>
<polygon fill="lightblue" stroke="transparent" points="0,-147 0,-168 266,-168 266,-147 0,-147"/>
<polygon fill="none" stroke="black" points="0,-147 0,-168 266,-168 266,-147 0,-147"/>
<text text-anchor="start" x="115.5" y="-153.8" font-family="Times,serif" font-size="14.00">User</text>
<polygon fill="none" stroke="black" points="0,-126 0,-147 31,-147 31,-126 0,-126"/>
<text text-anchor="start" x="7" y="-132.8" font-family="Times,serif" font-size="14.00">PK</text>
<polygon fill="none" stroke="black" points="31,-126 31,-147 181,-147 181,-126 31,-126"/>
<text text-anchor="start" x="34" y="-132.8" font-family="Times,serif" font-size="14.00">id</text>
<polygon fill="none" stroke="black" points="181,-126 181,-147 266,-147 266,-126 181,-126"/>
<text text-anchor="start" x="184" y="-132.8" font-family="Times,serif" font-size="14.00">serial</text>
<polygon fill="none" stroke="black" points="0,-105 0,-126 31,-126 31,-105 0,-105"/>
<text text-anchor="start" x="3" y="-111.8" font-family="Times,serif" font-size="14.00">UN</text>
<polygon fill="none" stroke="black" points="31,-105 31,-126 181,-126 181,-105 31,-105"/>
<text text-anchor="start" x="34" y="-111.8" font-family="Times,serif" font-size="14.00">email</text>
<polygon fill="none" stroke="black" points="181,-105 181,-126 266,-126 266,-105 181,-105"/>
<text text-anchor="start" x="184" y="-111.8" font-family="Times,serif" font-size="14.00">text</text>
<polygon fill="none" stroke="black" points="0,-84 0,-105 31,-105 31,-84 0,-84"/>
<polygon fill="none" stroke="black" points="31,-84 31,-105 181,-105 181,-84 31,-84"/>
<text text-anchor="start" x="34" y="-90.8" font-family="Times,serif" font-size="14.00">username</text>
<polygon fill="none" stroke="black" points="181,-84 181,-105 266,-105 266,-84 181,-84"/>
<text text-anchor="start" x="184" y="-90.8" font-family="Times,serif" font-size="14.00">nchar(150)</text>
<polygon fill="none" stroke="black" points="0,-63 0,-84 31,-84 31,-63 0,-63"/>
<polygon fill="none" stroke="black" points="31,-63 31,-84 181,-84 181,-63 31,-63"/>
<text text-anchor="start" x="34" y="-69.8" font-family="Times,serif" font-size="14.00">first_name</text>
<polygon fill="none" stroke="black" points="181,-63 181,-84 266,-84 266,-63 181,-63"/>
<text text-anchor="start" x="184" y="-69.8" font-family="Times,serif" font-size="14.00">nchar(150)</text>
<polygon fill="none" stroke="black" points="0,-42 0,-63 31,-63 31,-42 0,-42"/>
<polygon fill="none" stroke="black" points="31,-42 31,-63 181,-63 181,-42 31,-42"/>
<text text-anchor="start" x="34" y="-48.8" font-family="Times,serif" font-size="14.00">last_name</text>
<polygon fill="none" stroke="black" points="181,-42 181,-63 266,-63 266,-42 181,-42"/>
<text text-anchor="start" x="184" y="-48.8" font-family="Times,serif" font-size="14.00">nchar(150)</text>
<polygon fill="none" stroke="black" points="0,-21 0,-42 31,-42 31,-21 0,-21"/>
<polygon fill="none" stroke="black" points="31,-21 31,-42 181,-42 181,-21 31,-21"/>
<text text-anchor="start" x="34" y="-27.8" font-family="Times,serif" font-size="14.00">lat</text>
<polygon fill="none" stroke="black" points="181,-21 181,-42 266,-42 266,-21 181,-21"/>
<text text-anchor="start" x="184" y="-27.8" font-family="Times,serif" font-size="14.00">type</text>
<polygon fill="none" stroke="black" points="0,0 0,-21 31,-21 31,0 0,0"/>
<text text-anchor="start" x="7" y="-6.8" font-family="Times,serif" font-size="14.00">FK</text>
<polygon fill="none" stroke="black" points="31,0 31,-21 181,-21 181,0 31,0"/>
<text text-anchor="start" x="34" y="-6.8" font-family="Times,serif" font-size="14.00">location_id</text>
<polygon fill="none" stroke="black" points="181,0 181,-21 266,-21 266,0 181,0"/>
<text text-anchor="start" x="184" y="-6.8" font-family="Times,serif" font-size="14.00">serial</text>
</g>
<!-- Favorite -->
<g id="node2" class="node">
<title>Favorite</title>
<polygon fill="lightblue" stroke="transparent" points="375,-115 375,-136 602,-136 602,-115 375,-115"/>
<polygon fill="none" stroke="black" points="375,-115 375,-136 602,-136 602,-115 375,-115"/>
<text text-anchor="start" x="459" y="-121.8" font-family="Times,serif" font-size="14.00">Favorite</text>
<polygon fill="none" stroke="black" points="375,-94 375,-115 402,-115 402,-94 375,-94"/>
<text text-anchor="start" x="378" y="-100.8" font-family="Times,serif" font-size="14.00">PK</text>
<polygon fill="none" stroke="black" points="402,-94 402,-115 552,-115 552,-94 402,-94"/>
<text text-anchor="start" x="405" y="-100.8" font-family="Times,serif" font-size="14.00">id</text>
<polygon fill="none" stroke="black" points="552,-94 552,-115 602,-115 602,-94 552,-94"/>
<text text-anchor="start" x="555" y="-100.8" font-family="Times,serif" font-size="14.00">serial</text>
<polygon fill="none" stroke="black" points="375,-73 375,-94 402,-94 402,-73 375,-73"/>
<polygon fill="none" stroke="black" points="402,-73 402,-94 552,-94 552,-73 402,-73"/>
<text text-anchor="start" x="405" y="-79.8" font-family="Times,serif" font-size="14.00">row</text>
<polygon fill="none" stroke="black" points="552,-73 552,-94 602,-94 602,-73 552,-73"/>
<text text-anchor="start" x="555" y="-79.8" font-family="Times,serif" font-size="14.00">type</text>
<polygon fill="none" stroke="black" points="375,-52 375,-73 402,-73 402,-52 375,-52"/>
<text text-anchor="start" x="378" y="-58.8" font-family="Times,serif" font-size="14.00">FK</text>
<polygon fill="none" stroke="black" points="402,-52 402,-73 552,-73 552,-52 402,-52"/>
<text text-anchor="start" x="405" y="-58.8" font-family="Times,serif" font-size="14.00">user_id</text>
<polygon fill="none" stroke="black" points="552,-52 552,-73 602,-73 602,-52 552,-52"/>
<text text-anchor="start" x="555" y="-58.8" font-family="Times,serif" font-size="14.00">serial</text>
<polygon fill="none" stroke="black" points="375,-31 375,-52 402,-52 402,-31 375,-31"/>
<text text-anchor="start" x="378" y="-37.8" font-family="Times,serif" font-size="14.00">FK</text>
<polygon fill="none" stroke="black" points="402,-31 402,-52 552,-52 552,-31 402,-31"/>
<text text-anchor="start" x="405" y="-37.8" font-family="Times,serif" font-size="14.00">location_id</text>
<polygon fill="none" stroke="black" points="552,-31 552,-52 602,-52 602,-31 552,-31"/>
<text text-anchor="start" x="555" y="-37.8" font-family="Times,serif" font-size="14.00">serial</text>
</g>
<!-- User&#45;&gt;Favorite -->
<g id="edge1" class="edge">
<title>User&#45;&gt;Favorite</title>
<path fill="none" stroke="black" d="M276.2,-84C276.2,-84 369.41,-84 369.41,-84"/>
<polygon fill="black" stroke="black" points="364.41,-84 374.41,-88.5 369.41,-84 374.41,-84 374.41,-84 374.41,-84 369.41,-84 374.41,-79.5 364.41,-84 364.41,-84"/>
<polygon fill="black" stroke="black" points="267.2,-89 267.2,-79 269.2,-79 269.2,-89 267.2,-89"/>
<polyline fill="none" stroke="black" points="266.2,-84 271.2,-84 "/>
</g>
<!-- Location -->
<g id="node3" class="node">
<title>Location</title>
<polygon fill="lightblue" stroke="transparent" points="163,-309 163,-330 458,-330 458,-309 163,-309"/>
<polygon fill="none" stroke="black" points="163,-309 163,-330 458,-330 458,-309 163,-309"/>
<text text-anchor="start" x="280" y="-315.8" font-family="Times,serif" font-size="14.00">Location</text>
<polygon fill="none" stroke="black" points="163,-288 163,-309 190,-309 190,-288 163,-288"/>
<text text-anchor="start" x="166" y="-294.8" font-family="Times,serif" font-size="14.00">PK</text>
<polygon fill="none" stroke="black" points="190,-288 190,-309 340,-309 340,-288 190,-288"/>
<text text-anchor="start" x="193" y="-294.8" font-family="Times,serif" font-size="14.00">id</text>
<polygon fill="none" stroke="black" points="340,-288 340,-309 458,-309 458,-288 340,-288"/>
<text text-anchor="start" x="343" y="-294.8" font-family="Times,serif" font-size="14.00">serial</text>
<polygon fill="none" stroke="black" points="163,-267 163,-288 190,-288 190,-267 163,-267"/>
<polygon fill="none" stroke="black" points="190,-267 190,-288 340,-288 340,-267 190,-267"/>
<text text-anchor="start" x="193" y="-273.8" font-family="Times,serif" font-size="14.00">city</text>
<polygon fill="none" stroke="black" points="340,-267 340,-288 458,-288 458,-267 340,-267"/>
<text text-anchor="start" x="343" y="-273.8" font-family="Times,serif" font-size="14.00">text</text>
<polygon fill="none" stroke="black" points="163,-246 163,-267 190,-267 190,-246 163,-246"/>
<polygon fill="none" stroke="black" points="190,-246 190,-267 340,-267 340,-246 190,-246"/>
<text text-anchor="start" x="193" y="-252.8" font-family="Times,serif" font-size="14.00">country_code</text>
<polygon fill="none" stroke="black" points="340,-246 340,-267 458,-267 458,-246 340,-246"/>
<text text-anchor="start" x="343" y="-252.8" font-family="Times,serif" font-size="14.00">nchar(3)</text>
<polygon fill="none" stroke="black" points="163,-225 163,-246 190,-246 190,-225 163,-225"/>
<polygon fill="none" stroke="black" points="190,-225 190,-246 340,-246 340,-225 190,-225"/>
<text text-anchor="start" x="193" y="-231.8" font-family="Times,serif" font-size="14.00">longitude</text>
<polygon fill="none" stroke="black" points="340,-225 340,-246 458,-246 458,-225 340,-225"/>
<text text-anchor="start" x="343" y="-231.8" font-family="Times,serif" font-size="14.00">decimal(18, 15)</text>
<polygon fill="none" stroke="black" points="163,-204 163,-225 190,-225 190,-204 163,-204"/>
<polygon fill="none" stroke="black" points="190,-204 190,-225 340,-225 340,-204 190,-204"/>
<text text-anchor="start" x="193" y="-210.8" font-family="Times,serif" font-size="14.00">latitude</text>
<polygon fill="none" stroke="black" points="340,-204 340,-225 458,-225 458,-204 340,-204"/>
<text text-anchor="start" x="343" y="-210.8" font-family="Times,serif" font-size="14.00">decimal(17, 15)</text>
</g>
<!-- Location&#45;&gt;User -->
<g id="edge2" class="edge">
<title>Location&#45;&gt;User</title>
<path fill="none" stroke="black" d="M214.25,-193.77C214.25,-193.77 214.25,-173.22 214.25,-173.22"/>
<polygon fill="black" stroke="black" points="214.25,-178.22 218.75,-168.22 214.25,-173.22 214.25,-168.22 214.25,-168.22 214.25,-168.22 214.25,-173.22 209.75,-168.22 214.25,-178.22 214.25,-178.22"/>
<polygon fill="black" stroke="black" points="219.25,-202.77 209.25,-202.77 209.25,-200.77 219.25,-200.77 219.25,-202.77"/>
<polyline fill="none" stroke="black" points="214.25,-203.77 214.25,-198.77 "/>
</g>
<!-- Location&#45;&gt;Favorite -->
<g id="edge3" class="edge">
<title>Location&#45;&gt;Favorite</title>
<path fill="none" stroke="black" d="M416,-193.77C416,-193.77 416,-141.61 416,-141.61"/>
<polygon fill="black" stroke="black" points="416,-146.61 420.5,-136.61 416,-141.61 416,-136.61 416,-136.61 416,-136.61 416,-141.61 411.5,-136.61 416,-146.61 416,-146.61"/>
<polygon fill="black" stroke="black" points="421,-202.77 411,-202.77 411,-200.77 421,-200.77 421,-202.77"/>
<polyline fill="none" stroke="black" points="416,-203.77 416,-198.77 "/>
</g>
</g>
</svg>
